<?xml version="1.0" encoding="UTF-8"?>
<svg width="800px" height="800px" viewBox="0 0 24 24" version="1.1" xmlns="http://www.w3.org/2000/svg" xmlns:xlink="http://www.w3.org/1999/xlink">
    <title>Blood Drop</title>
    <g stroke="none" stroke-width="1" fill="none" fill-rule="evenodd">
        <path d="M12,2 C12,2 6,8 6,14 C6,18.4183 8.6863,22 12,22 C15.3137,22 18,18.4183 18,14 C18,8 12,2 12,2 Z" fill="#E73827" fill-rule="nonzero"></path>
        <path d="M10.5,15 C10.2239,15 10,14.7761 10,14.5 C10,14.2239 10.2239,14 10.5,14 C11.8807,14 13,13.1046 13,12 C13,11.7239 13.2239,11.5 13.5,11.5 C13.7761,11.5 14,11.7239 14,12 C14,13.6569 12.433,15 10.5,15 Z" fill="#FFFFFF" fill-rule="nonzero"></path>
    </g>
</svg>
